<mxfile host="app.diagrams.net" modified="2022-06-02T11:59:42.140Z" agent="5.0 (Windows)" etag="ZFWzmVmLuFjWLHkV7mp_" version="15.0.3" type="github">
  <diagram id="6a731a19-8d31-9384-78a2-239565b7b9f0" name="Page-1">
    <mxGraphModel dx="1422" dy="1850" grid="1" gridSize="10" guides="1" tooltips="1" connect="1" arrows="1" fold="1" page="1" pageScale="1" pageWidth="827" pageHeight="1169" background="none" math="0" shadow="0">
      <root>
        <mxCell id="0" />
        <mxCell id="1" parent="0" />
        <mxCell id="OvxDVC8r8ijNcddhhhJw-2257" value="" style="shape=mxgraph.cisco.routers.atm_router;html=1;pointerEvents=1;dashed=0;fillColor=#036897;strokeColor=#ffffff;strokeWidth=2;verticalLabelPosition=bottom;verticalAlign=top;align=center;outlineConnect=0;" vertex="1" parent="1">
          <mxGeometry x="360" y="20" width="78" height="53" as="geometry" />
        </mxCell>
        <mxCell id="OvxDVC8r8ijNcddhhhJw-2258" value="" style="ellipse;shape=cloud;whiteSpace=wrap;html=1;" vertex="1" parent="1">
          <mxGeometry x="250" y="-100" width="120" height="80" as="geometry" />
        </mxCell>
        <mxCell id="OvxDVC8r8ijNcddhhhJw-2261" value="" style="shape=link;html=1;exitX=0.55;exitY=0.95;exitDx=0;exitDy=0;exitPerimeter=0;entryX=0.12;entryY=0.1;entryDx=0;entryDy=0;entryPerimeter=0;" edge="1" parent="1" source="OvxDVC8r8ijNcddhhhJw-2258" target="OvxDVC8r8ijNcddhhhJw-2257">
          <mxGeometry width="100" relative="1" as="geometry">
            <mxPoint x="510" y="-10" as="sourcePoint" />
            <mxPoint x="610" y="-10" as="targetPoint" />
          </mxGeometry>
        </mxCell>
        <mxCell id="OvxDVC8r8ijNcddhhhJw-2262" value="" style="shape=mxgraph.cisco.switches.multiswitch_device;html=1;pointerEvents=1;dashed=0;fillColor=#036897;strokeColor=#ffffff;strokeWidth=2;verticalLabelPosition=bottom;verticalAlign=top;align=center;outlineConnect=0;" vertex="1" parent="1">
          <mxGeometry x="219" y="110" width="101" height="64" as="geometry" />
        </mxCell>
        <mxCell id="OvxDVC8r8ijNcddhhhJw-2263" value="" style="shape=mxgraph.cisco.switches.multiswitch_device;html=1;pointerEvents=1;dashed=0;fillColor=#036897;strokeColor=#ffffff;strokeWidth=2;verticalLabelPosition=bottom;verticalAlign=top;align=center;outlineConnect=0;" vertex="1" parent="1">
          <mxGeometry x="460" y="110" width="101" height="64" as="geometry" />
        </mxCell>
        <mxCell id="OvxDVC8r8ijNcddhhhJw-2264" value="" style="shape=link;html=1;" edge="1" parent="1" source="OvxDVC8r8ijNcddhhhJw-2262" target="OvxDVC8r8ijNcddhhhJw-2257">
          <mxGeometry width="100" relative="1" as="geometry">
            <mxPoint x="510" y="-10" as="sourcePoint" />
            <mxPoint x="610" y="-10" as="targetPoint" />
          </mxGeometry>
        </mxCell>
        <mxCell id="OvxDVC8r8ijNcddhhhJw-2265" value="" style="shape=link;html=1;" edge="1" parent="1" source="OvxDVC8r8ijNcddhhhJw-2257" target="OvxDVC8r8ijNcddhhhJw-2263">
          <mxGeometry width="100" relative="1" as="geometry">
            <mxPoint x="510" y="-10" as="sourcePoint" />
            <mxPoint x="610" y="-10" as="targetPoint" />
          </mxGeometry>
        </mxCell>
        <mxCell id="OvxDVC8r8ijNcddhhhJw-2266" value="kz-rtr-01" style="text;html=1;resizable=0;autosize=1;align=center;verticalAlign=middle;points=[];fillColor=none;strokeColor=none;rounded=0;" vertex="1" parent="1">
          <mxGeometry x="369" y="-20" width="60" height="20" as="geometry" />
        </mxCell>
        <mxCell id="OvxDVC8r8ijNcddhhhJw-2267" value="kz-sw01-core" style="text;html=1;resizable=0;autosize=1;align=center;verticalAlign=middle;points=[];fillColor=none;strokeColor=none;rounded=0;" vertex="1" parent="1">
          <mxGeometry x="215" y="73" width="90" height="20" as="geometry" />
        </mxCell>
        <mxCell id="OvxDVC8r8ijNcddhhhJw-2268" value="kz-sw02-core" style="text;html=1;resizable=0;autosize=1;align=center;verticalAlign=middle;points=[];fillColor=none;strokeColor=none;rounded=0;" vertex="1" parent="1">
          <mxGeometry x="480" y="73" width="90" height="20" as="geometry" />
        </mxCell>
        <mxCell id="OvxDVC8r8ijNcddhhhJw-2269" value="" style="shape=mxgraph.cisco.switches.workgroup_switch;html=1;pointerEvents=1;dashed=0;fillColor=#036897;strokeColor=#ffffff;strokeWidth=2;verticalLabelPosition=bottom;verticalAlign=top;align=center;outlineConnect=0;" vertex="1" parent="1">
          <mxGeometry x="219" y="240" width="101" height="50" as="geometry" />
        </mxCell>
        <mxCell id="OvxDVC8r8ijNcddhhhJw-2270" value="" style="shape=mxgraph.cisco.switches.workgroup_switch;html=1;pointerEvents=1;dashed=0;fillColor=#036897;strokeColor=#ffffff;strokeWidth=2;verticalLabelPosition=bottom;verticalAlign=top;align=center;outlineConnect=0;" vertex="1" parent="1">
          <mxGeometry x="460" y="240" width="101" height="50" as="geometry" />
        </mxCell>
        <mxCell id="OvxDVC8r8ijNcddhhhJw-2271" value="kz-sw01" style="text;html=1;resizable=0;autosize=1;align=center;verticalAlign=middle;points=[];fillColor=none;strokeColor=none;rounded=0;" vertex="1" parent="1">
          <mxGeometry x="280" y="210" width="60" height="20" as="geometry" />
        </mxCell>
        <mxCell id="OvxDVC8r8ijNcddhhhJw-2272" value="&lt;div&gt;kz-sw02&lt;/div&gt;&lt;div&gt;&lt;br&gt;&lt;/div&gt;" style="text;html=1;resizable=0;autosize=1;align=center;verticalAlign=middle;points=[];fillColor=none;strokeColor=none;rounded=0;" vertex="1" parent="1">
          <mxGeometry x="520" y="210" width="60" height="30" as="geometry" />
        </mxCell>
        <mxCell id="OvxDVC8r8ijNcddhhhJw-2273" value="" style="shape=link;html=1;" edge="1" parent="1" source="OvxDVC8r8ijNcddhhhJw-2262" target="OvxDVC8r8ijNcddhhhJw-2269">
          <mxGeometry width="100" relative="1" as="geometry">
            <mxPoint x="430" y="240" as="sourcePoint" />
            <mxPoint x="530" y="240" as="targetPoint" />
          </mxGeometry>
        </mxCell>
        <mxCell id="OvxDVC8r8ijNcddhhhJw-2274" value="" style="shape=mxgraph.cisco.servers.fileserver;html=1;pointerEvents=1;dashed=0;fillColor=#036897;strokeColor=#ffffff;strokeWidth=2;verticalLabelPosition=bottom;verticalAlign=top;align=center;outlineConnect=0;" vertex="1" parent="1">
          <mxGeometry x="120" y="80" width="43" height="62" as="geometry" />
        </mxCell>
        <mxCell id="OvxDVC8r8ijNcddhhhJw-2275" value="" style="shape=mxgraph.cisco.servers.fileserver;html=1;pointerEvents=1;dashed=0;fillColor=#036897;strokeColor=#ffffff;strokeWidth=2;verticalLabelPosition=bottom;verticalAlign=top;align=center;outlineConnect=0;" vertex="1" parent="1">
          <mxGeometry x="120" y="173" width="43" height="62" as="geometry" />
        </mxCell>
        <mxCell id="OvxDVC8r8ijNcddhhhJw-2276" value="kzdc01" style="text;html=1;resizable=0;autosize=1;align=center;verticalAlign=middle;points=[];fillColor=none;strokeColor=none;rounded=0;" vertex="1" parent="1">
          <mxGeometry x="120" y="53" width="50" height="20" as="geometry" />
        </mxCell>
        <mxCell id="OvxDVC8r8ijNcddhhhJw-2277" value="&lt;div&gt;kzdc02&lt;/div&gt;" style="text;html=1;resizable=0;autosize=1;align=center;verticalAlign=middle;points=[];fillColor=none;strokeColor=none;rounded=0;" vertex="1" parent="1">
          <mxGeometry x="113" y="150" width="50" height="20" as="geometry" />
        </mxCell>
        <mxCell id="OvxDVC8r8ijNcddhhhJw-2278" value="" style="shape=link;html=1;" edge="1" parent="1" source="OvxDVC8r8ijNcddhhhJw-2274" target="OvxDVC8r8ijNcddhhhJw-2262">
          <mxGeometry width="100" relative="1" as="geometry">
            <mxPoint x="150" y="110.71000000000001" as="sourcePoint" />
            <mxPoint x="250" y="110.71000000000001" as="targetPoint" />
          </mxGeometry>
        </mxCell>
        <mxCell id="OvxDVC8r8ijNcddhhhJw-2279" value="" style="shape=link;html=1;" edge="1" parent="1" source="OvxDVC8r8ijNcddhhhJw-2275" target="OvxDVC8r8ijNcddhhhJw-2262">
          <mxGeometry width="100" relative="1" as="geometry">
            <mxPoint x="430" y="170" as="sourcePoint" />
            <mxPoint x="530" y="170" as="targetPoint" />
          </mxGeometry>
        </mxCell>
        <mxCell id="OvxDVC8r8ijNcddhhhJw-2280" value="" style="shape=link;html=1;" edge="1" parent="1" source="OvxDVC8r8ijNcddhhhJw-2262" target="OvxDVC8r8ijNcddhhhJw-2263">
          <mxGeometry width="100" relative="1" as="geometry">
            <mxPoint x="430" y="170" as="sourcePoint" />
            <mxPoint x="530" y="170" as="targetPoint" />
          </mxGeometry>
        </mxCell>
        <mxCell id="OvxDVC8r8ijNcddhhhJw-2281" value="" style="shape=link;html=1;" edge="1" parent="1" source="OvxDVC8r8ijNcddhhhJw-2270" target="OvxDVC8r8ijNcddhhhJw-2263">
          <mxGeometry width="100" relative="1" as="geometry">
            <mxPoint x="430" y="170" as="sourcePoint" />
            <mxPoint x="530" y="170" as="targetPoint" />
          </mxGeometry>
        </mxCell>
      </root>
    </mxGraphModel>
  </diagram>
</mxfile>
